<?xml version="1.0" encoding="utf-8"?>
<!-- Generator: Adobe Illustrator 24.0.1, SVG Export Plug-In . SVG Version: 6.00 Build 0)  -->
<svg version="1.1" id="Layer_1" xmlns="http://www.w3.org/2000/svg" xmlns:xlink="http://www.w3.org/1999/xlink" x="0px" y="0px"
	 viewBox="0 0 165.8 165.6" style="enable-background:new 0 0 165.8 165.6;" xml:space="preserve">
<style type="text/css">
	.st0{fill:#DAB76C;}
</style>
<path class="st0" d="M141.4,141.2c-7.6,7.6-16.4,13.5-26.4,17.8c-10,4.3-20.7,6.5-32.1,6.5c-11.5,0-22.3-2.2-32.4-6.5
	c-10-4.3-18.8-10.3-26.3-17.8c-7.5-7.6-13.4-16.3-17.7-26.4C2.2,104.9,0,94.2,0,82.8c0-11.4,2.2-22.1,6.5-32.1
	c4.3-10,10.3-18.8,17.7-26.4c7.5-7.6,16.3-13.5,26.3-17.8C60.6,2.2,71.4,0,82.9,0C94.3,0,105,2.2,115,6.5
	c10,4.3,18.8,10.3,26.4,17.8c7.6,7.6,13.5,16.3,17.9,26.4c4.3,10,6.5,20.7,6.5,32.1c0,11.4-2.2,22.1-6.5,32.1
	C154.9,124.9,149,133.7,141.4,141.2z M142.1,57.5c-3.4-7.9-8-14.7-13.8-20.5c-5.8-5.8-12.7-10.4-20.5-13.8c-7.9-3.4-16.2-5-25-5
	c-9,0-17.4,1.7-25.2,5c-7.9,3.4-14.7,8-20.5,13.8c-5.8,5.8-10.4,12.7-13.8,20.5c-3.4,7.9-5,16.3-5,25.2c0,8.8,1.7,17.2,5,25
	c3.4,7.9,8,14.7,13.8,20.5c5.8,5.8,12.7,10.5,20.5,13.9c7.9,3.4,16.3,5.2,25.2,5.2c8.8,0,17.2-1.7,25-5.2
	c7.9-3.4,14.7-8.1,20.5-13.9c5.8-5.8,10.4-12.7,13.8-20.5c3.4-7.9,5-16.2,5-25C147.2,73.8,145.5,65.4,142.1,57.5z M93.5,92.8
	c-1.4,1.4-3,2.4-4.8,3.2c-1.8,0.8-3.8,1.2-5.8,1.2c-2.1,0-4-0.4-5.9-1.2c-1.8-0.8-3.4-1.9-4.8-3.2c-1.4-1.4-2.4-3-3.2-4.8
	c-0.8-1.8-1.2-3.8-1.2-5.8c0-2.1,0.4-4,1.2-5.8c0.8-1.8,1.9-3.4,3.2-4.8c1.4-1.4,2.9-2.4,4.8-3.2c1.8-0.8,3.8-1.2,5.9-1.2
	c2.1,0,4,0.4,5.8,1.2c1.8,0.8,3.4,1.9,4.8,3.2c1.4,1.4,2.4,3,3.2,4.8c0.8,1.8,1.2,3.8,1.2,5.8c0,2.1-0.4,4-1.2,5.8
	C95.9,89.8,94.8,91.4,93.5,92.8z"/>
</svg>
